<!DOCTYPE svg PUBLIC "-//W3C//DTD SVG 1.1//EN" "https://www.w3.org/Graphics/SVG/1.1/DTD/svg11.dtd">
<svg xmlns="http://www.w3.org/2000/svg" aria-label="Graph view" width="833" height="980"><g transform="translate(12,20.125)"><g class="nodes"><g class="node-container" transform="translate(404.48748779296875,18.75)"><g class="node anchor"><circle class="shape" x="-16.875" y="-8.75" r="26.875"/><text class="label"><tspan xml:space="preserve" text-anchor="middle" alignment-baseline="central">Start</tspan></text></g></g><g class="node-container" transform="translate(404.48748779296875,923.75)"><g class="node anchor"><circle class="shape" x="-13.175000190734863" y="-8.75" r="23.175000190734863"/><text class="label"><tspan xml:space="preserve" text-anchor="middle" alignment-baseline="central">End</tspan></text></g></g><g class="node-container" transform="translate(404.48748779296875,471.25)"><g class="node state Parallel Container" aria-label="State Parallel" data-virtual-tab-id="1426" tabindex="0" transform="translate(-404.48748779296875,-368.75)"><rect class="shape" rx="5" ry="5" x="0" y="0" width="808.9749755859375" height="797.5" transform="translate(0,-20)"/><g class="branches" transform="translate(20,40)"><g class="branch" transform="translate(0,0)"><g class="nodes"><g class="node-container" transform="translate(94.90833282470703,18.75)"><g class="node state Task" aria-label="State CreateAthenaTableView" data-virtual-tab-id="1427" tabindex="-1" transform="translate(-8)"><rect class="shape step-status" rx="5" ry="5" x="-86.90833282470703" y="-18.75" width="189.81666564941406" height="37.5"/><text class="label" xml:space="preserve" text-anchor="middle" alignment-baseline="central">CreateAthenaTableView</text><svg class="icon" width="16" height="16" x="81.90833282470703" y="-8"/></g></g></g><g class="edges"/></g><g class="branch" transform="translate(209.81666564941406,0)"><g class="nodes"><g class="node-container" transform="translate(361.75000762939453,18.75)"><g class="node state Task" aria-label="State GetAccountIDs" data-virtual-tab-id="1428" tabindex="-1" transform="translate(-8)"><rect class="shape step-status" rx="5" ry="5" x="-57.59166717529297" y="-18.75" width="131.18333435058594" height="37.5"/><text class="label" xml:space="preserve" text-anchor="middle" alignment-baseline="central">GetAccountIDs</text><svg class="icon" width="16" height="16" x="52.59166717529297" y="-8"/></g></g><g class="node-container" transform="translate(361.75000762939453,81.25)"><g class="node state Task" aria-label="State CheckFirstInvocation" data-virtual-tab-id="1429" tabindex="-1" transform="translate(-8)"><rect class="shape step-status" rx="5" ry="5" x="-76.81666564941406" y="-18.75" width="169.63333129882812" height="37.5"/><text class="label" xml:space="preserve" text-anchor="middle" alignment-baseline="central">CheckFirstInvocation</text><svg class="icon" width="16" height="16" x="71.81666564941406" y="-8"/></g></g><g class="node-container" transform="translate(361.75000762939453,143.75)"><g class="node state Choice" aria-label="State Choice: First Invocation" data-virtual-tab-id="1430" tabindex="-1" transform="translate(-8)"><rect class="shape step-status" rx="5" ry="5" x="-84.2750015258789" y="-18.75" width="184.5500030517578" height="37.5"/><text class="label" xml:space="preserve" text-anchor="middle" alignment-baseline="central">Choice: First Invocation</text><svg class="icon" width="16" height="16" x="79.2750015258789" y="-8"/></g></g><g class="node-container" transform="translate(407.950008392334,282.5)"><g class="node state Map Container" aria-label="State ProcessAccounts-Backfill" data-virtual-tab-id="1431" tabindex="-1" transform="translate(-141.20834350585938,-95)"><rect class="shape" rx="5" ry="5" width="302.41668701171875" height="180" transform="translate(-14,6)"/><rect class="shape" rx="5" ry="5" width="302.41668701171875" height="180" transform="translate(-12,8)"/><rect class="shape" rx="5" ry="5" width="302.41668701171875" height="180" transform="translate(-10,10)"/><g class="branches" transform="translate(20,70)"><g class="branch" transform="translate(0, 0)"><g class="nodes"><g class="node-container" transform="translate(121.20833587646484,18.75)"><g class="node state Task" aria-label="State ExtractCarbonEmissions-Backfill" data-virtual-tab-id="1432" tabindex="-1" transform="translate(-8)"><rect class="shape step-status" rx="5" ry="5" x="-113.20833587646484" y="-18.75" width="242.4166717529297" height="37.5"/><text class="label" xml:space="preserve" text-anchor="middle" alignment-baseline="central">ExtractCarbonEmissions-Backfill</text><svg class="icon" width="16" height="16" x="108.20833587646484" y="-8"/></g></g><g class="node-container" transform="translate(121.20833587646484,81.25)"><g class="node state Pass" aria-label="State HandleError-Process Accounts1" data-virtual-tab-id="1433" tabindex="-1" transform="translate(-8)"><rect class="shape step-status" rx="5" ry="5" x="-110.32499694824219" y="-18.75" width="236.64999389648438" height="37.5"/><text class="label" xml:space="preserve" text-anchor="middle" alignment-baseline="central">HandleError-Process Accounts1</text><svg class="icon" width="16" height="16" x="105.32499694824219" y="-8"/></g></g></g><g class="edges"><g class="edge"><path class="path" style="fill: none;" marker-end="url(#arrowhead1779)" d="M121.208,37.5L121.208,39.583C121.208,41.667,121.208,45.833,121.208,50C121.208,54.167,121.208,58.333,121.208,60.417L121.208,62.5"/><defs><marker id="arrowhead1779" viewBox="0 0 10 10" refX="9" refY="5" markerUnits="strokeWidth" markerWidth="8" markerHeight="6" orient="auto"><path d="M 0 0 L 10 5 L 0 10 z"/></marker></defs></g></g></g></g><path class="path" style="fill: none;" marker-end="url(#arrowhead1780)" d="M141.208,0L141.208,1.667C141.208,3.333,141.208,6.667,141.208,12.5C141.208,18.333,141.208,26.667,141.208,36.667C141.208,46.667,141.208,58.333,141.208,64.167L141.208,70"/><defs><marker id="arrowhead1780" viewBox="0 0 10 10" refX="9" refY="5" markerUnits="strokeWidth" markerWidth="8" markerHeight="6" orient="auto"><path d="M 0 0 L 10 5 L 0 10 z"/></marker></defs><g class="title node state"><rect class="shape step-status" rx="5" ry="5" x="0" y="0" width="282.41668701171875" height="40" transform="translate(0)"/><text class="label" xml:space="preserve" text-anchor="middle" alignment-baseline="central" font-weight="600" x="282.41668701171875" y="15" transform="translate(-149.20834350585938)">ProcessAccounts-Backfill</text><text class="desciption" xml:space="preserve" text-anchor="middle" alignment-baseline="central" x="282.41668701171875" y="35" transform="translate(-141.20834350585938)"/><svg class="icon" width="16" height="16" xml:space="preserve" text-anchor="middle" alignment-baseline="central" x="224.1916732788086" y="8"/></g></g></g><g class="node-container" transform="translate(361.75000762939453,421.25)"><g class="node state Task" aria-label="State ExtractCarbonEmissions-Canary" data-virtual-tab-id="1434" tabindex="-1" transform="translate(-8)"><rect class="shape step-status" rx="5" ry="5" x="-112.09166717529297" y="-18.75" width="240.18333435058594" height="37.5"/><text class="label" xml:space="preserve" text-anchor="middle" alignment-baseline="central">ExtractCarbonEmissions-Canary</text><svg class="icon" width="16" height="16" x="107.09166717529297" y="-8"/></g></g><g class="node-container" transform="translate(159.22500610351562,483.75)"><g class="node state Choice" aria-label="State Choice: New Data Available" data-virtual-tab-id="1435" tabindex="-1" transform="translate(-8)"><rect class="shape step-status" rx="5" ry="5" x="-97.125" y="-18.75" width="210.25" height="37.5"/><text class="label" xml:space="preserve" text-anchor="middle" alignment-baseline="central">Choice: New Data Available</text><svg class="icon" width="16" height="16" x="92.125" y="-8"/></g></g><g class="node-container" transform="translate(361.75000762939453,483.75)"><g class="node state Pass" aria-label="State HandleError" data-virtual-tab-id="1436" tabindex="-1" transform="translate(-8)"><rect class="shape step-status" rx="5" ry="5" x="-49.400001525878906" y="-18.75" width="114.80000305175781" height="37.5"/><text class="label" xml:space="preserve" text-anchor="middle" alignment-baseline="central">HandleError</text><svg class="icon" width="16" height="16" x="44.400001525878906" y="-8"/></g></g><g class="node-container" transform="translate(144.22500610351562,622.5)"><g class="node state Map Container" aria-label="State ProcessAccounts" data-virtual-tab-id="1437" tabindex="-1" transform="translate(-134.2249984741211,-95)"><rect class="shape" rx="5" ry="5" width="288.45001220703125" height="180" transform="translate(-14.000007629394531,6)"/><rect class="shape" rx="5" ry="5" width="288.45001220703125" height="180" transform="translate(-12.000007629394531,8)"/><rect class="shape" rx="5" ry="5" width="288.45001220703125" height="180" transform="translate(-10.000007629394531,10)"/><g class="branches" transform="translate(20,70)"><g class="branch" transform="translate(0, 0)"><g class="nodes"><g class="node-container" transform="translate(114.2249984741211,18.75)"><g class="node state Task" aria-label="State ExtractCarbonEmissions-All" data-virtual-tab-id="1438" tabindex="-1" transform="translate(-8)"><rect class="shape step-status" rx="5" ry="5" x="-98.31666564941406" y="-18.75" width="212.63333129882812" height="37.5"/><text class="label" xml:space="preserve" text-anchor="middle" alignment-baseline="central">ExtractCarbonEmissions-All</text><svg class="icon" width="16" height="16" x="93.31666564941406" y="-8"/></g></g><g class="node-container" transform="translate(114.2249984741211,81.25)"><g class="node state Pass" aria-label="State HandleError-Process Accounts" data-virtual-tab-id="1439" tabindex="-1" transform="translate(-8)"><rect class="shape step-status" rx="5" ry="5" x="-106.2249984741211" y="-18.75" width="228.4499969482422" height="37.5"/><text class="label" xml:space="preserve" text-anchor="middle" alignment-baseline="central">HandleError-Process Accounts</text><svg class="icon" width="16" height="16" x="101.2249984741211" y="-8"/></g></g></g><g class="edges"><g class="edge"><path class="path" style="fill: none;" marker-end="url(#arrowhead1781)" d="M114.225,37.5L114.225,39.583C114.225,41.667,114.225,45.833,114.225,50C114.225,54.167,114.225,58.333,114.225,60.417L114.225,62.5"/><defs><marker id="arrowhead1781" viewBox="0 0 10 10" refX="9" refY="5" markerUnits="strokeWidth" markerWidth="8" markerHeight="6" orient="auto"><path d="M 0 0 L 10 5 L 0 10 z"/></marker></defs></g></g></g></g><path class="path" style="fill: none;" marker-end="url(#arrowhead1782)" d="M134.225,0L134.225,1.667C134.225,3.333,134.225,6.667,134.225,12.5C134.225,18.333,134.225,26.667,134.225,36.667C134.225,46.667,134.225,58.333,134.225,64.167L134.225,70"/><defs><marker id="arrowhead1782" viewBox="0 0 10 10" refX="9" refY="5" markerUnits="strokeWidth" markerWidth="8" markerHeight="6" orient="auto"><path d="M 0 0 L 10 5 L 0 10 z"/></marker></defs><g class="title node state"><rect class="shape step-status" rx="5" ry="5" x="0" y="0" width="268.4499969482422" height="40" transform="translate(0)"/><text class="label" xml:space="preserve" text-anchor="middle" alignment-baseline="central" font-weight="600" x="268.4499969482422" y="15" transform="translate(-142.2249984741211)">ProcessAccounts</text><text class="desciption" xml:space="preserve" text-anchor="middle" alignment-baseline="central" x="268.4499969482422" y="35" transform="translate(-134.2249984741211)"/><svg class="icon" width="16" height="16" xml:space="preserve" text-anchor="middle" alignment-baseline="central" x="189.4666633605957" y="8"/></g></g></g><g class="node-container" transform="translate(439.15000915527344,622.5)"><g class="node state Wait" aria-label="State RetryLambdaDaily" data-virtual-tab-id="1440" tabindex="-1" transform="translate(-8)"><rect class="shape step-status" rx="5" ry="5" x="-69.4749984741211" y="-18.75" width="154.9499969482422" height="37.5"/><text class="label" xml:space="preserve" text-anchor="middle" alignment-baseline="central">RetryLambdaDaily</text><svg class="icon" width="16" height="16" x="64.4749984741211" y="-8"/></g></g></g><g class="edges"><g class="edge"><path class="path" style="fill: none;" marker-end="url(#arrowhead1783)" d="M361.75,37.5L361.75,39.583C361.75,41.667,361.75,45.833,361.75,50C361.75,54.167,361.75,58.333,361.75,60.417L361.75,62.5"/><defs><marker id="arrowhead1783" viewBox="0 0 10 10" refX="9" refY="5" markerUnits="strokeWidth" markerWidth="8" markerHeight="6" orient="auto"><path d="M 0 0 L 10 5 L 0 10 z"/></marker></defs></g><g class="edge"><path class="path" style="fill: none;" marker-end="url(#arrowhead1784)" d="M361.75,100L361.75,102.083C361.75,104.167,361.75,108.333,361.75,112.5C361.75,116.667,361.75,120.833,361.75,122.917L361.75,125"/><defs><marker id="arrowhead1784" viewBox="0 0 10 10" refX="9" refY="5" markerUnits="strokeWidth" markerWidth="8" markerHeight="6" orient="auto"><path d="M 0 0 L 10 5 L 0 10 z"/></marker></defs></g><g class="edge"><path class="path" style="fill: none;" marker-end="url(#arrowhead1785)" d="M389.47,162.5L392.55,164.583C395.63,166.667,401.79,170.833,404.87,175C407.95,179.167,407.95,183.333,407.95,185.417L407.95,187.5"/></g><g class="edge"><path class="path" style="fill: none;" marker-end="url(#arrowhead1786)" d="M277.745,162.5L268.411,164.583C259.077,166.667,240.409,170.833,231.076,190.833C221.742,210.833,221.742,246.667,221.742,282.5C221.742,318.333,221.742,354.167,231.076,374.167C240.409,394.167,259.077,398.333,268.411,400.417L277.745,402.5"/><defs><marker id="arrowhead1786" viewBox="0 0 10 10" refX="9" refY="5" markerUnits="strokeWidth" markerWidth="8" markerHeight="6" orient="auto"><path d="M 0 0 L 10 5 L 0 10 z"/></marker></defs></g><g class="edge"><path class="path" style="fill: none;" marker-end="url(#arrowhead1787)" d="M407.95,377.5L407.95,379.583C407.95,381.667,407.95,385.833,404.87,390C401.79,394.167,395.63,398.333,392.55,400.417L389.47,402.5"/><defs><marker id="arrowhead1787" viewBox="0 0 10 10" refX="9" refY="5" markerUnits="strokeWidth" markerWidth="8" markerHeight="6" orient="auto"><path d="M 0 0 L 10 5 L 0 10 z"/></marker></defs></g><g class="edge"><path class="path" style="fill: none;" marker-end="url(#arrowhead1788)" d="M241.658,439.78L227.919,441.9C214.181,444.02,186.703,448.26,172.964,452.463C159.225,456.667,159.225,460.833,159.225,462.917L159.225,465"/><defs><marker id="arrowhead1788" viewBox="0 0 10 10" refX="9" refY="5" markerUnits="strokeWidth" markerWidth="8" markerHeight="6" orient="auto"><path d="M 0 0 L 10 5 L 0 10 z"/></marker></defs></g><g class="edge"><path class="path" style="fill: none;" marker-end="url(#arrowhead1789)" d="M361.75,440L361.75,442.083C361.75,444.167,361.75,448.333,361.75,452.5C361.75,456.667,361.75,460.833,361.75,462.917L361.75,465"/><defs><marker id="arrowhead1789" viewBox="0 0 10 10" refX="9" refY="5" markerUnits="strokeWidth" markerWidth="8" markerHeight="6" orient="auto"><path d="M 0 0 L 10 5 L 0 10 z"/></marker></defs></g><g class="edge"><path class="path" style="fill: none;" marker-end="url(#arrowhead1790)" d="M150.225,502.5L149.225,504.583C148.225,506.667,146.225,510.833,145.225,515C144.225,519.167,144.225,523.333,144.225,525.417L144.225,527.5"/></g><g class="edge"><path class="path" style="fill: none;" marker-end="url(#arrowhead1791)" d="M238.703,502.5L247.533,504.583C256.364,506.667,274.026,510.833,303.147,527.708C332.268,544.583,372.849,574.167,393.139,588.958L413.43,603.75"/><defs><marker id="arrowhead1791" viewBox="0 0 10 10" refX="9" refY="5" markerUnits="strokeWidth" markerWidth="8" markerHeight="6" orient="auto"><path d="M 0 0 L 10 5 L 0 10 z"/></marker></defs></g><g class="edge"><path class="path" style="fill: none;" marker-end="url(#arrowhead1792)" d="M441.766,603.75L443.83,588.958C445.894,574.167,450.022,544.583,452.086,524.583C454.15,504.583,454.15,494.167,454.15,483.75C454.15,473.333,454.15,462.917,447.99,455.625C441.83,448.333,429.51,444.167,423.35,442.083L417.19,440"/><defs><marker id="arrowhead1792" viewBox="0 0 10 10" refX="9" refY="5" markerUnits="strokeWidth" markerWidth="8" markerHeight="6" orient="auto"><path d="M 0 0 L 10 5 L 0 10 z"/></marker></defs></g></g></g></g><g class="title node state" transform="translate(384.48748779296875,-40)"><rect class="shape step-status" rx="5" ry="5" x="0" y="0" width="94.58333206176758" height="40" transform="translate(-27.29166603088379)"/><text class="label" xml:space="preserve" text-anchor="middle" alignment-baseline="central" font-weight="600" x="40" y="15" transform="translate(-28)">Parallel</text><text class="desciption" xml:space="preserve" text-anchor="middle" alignment-baseline="central" x="40" y="35" transform="translate(-20)"/><svg class="icon" width="16" height="16" xml:space="preserve" text-anchor="middle" alignment-baseline="central" x="46.29166603088379" y="8"/></g><path class="path" style="fill: none;" marker-end="url(#arrowhead1793)" d="M404.487,0L404.487,3.333C404.487,6.667,404.487,13.333,356.224,16.667C307.961,20,211.435,20,163.172,23.333C114.908,26.667,114.908,33.333,114.908,36.667L114.908,40"/><defs><marker id="arrowhead1793" viewBox="0 0 10 10" refX="9" refY="5" markerUnits="strokeWidth" markerWidth="8" markerHeight="6" orient="auto"><path d="M 0 0 L 10 5 L 0 10 z"/></marker></defs><path class="path" style="fill: none;" marker-end="url(#arrowhead1794)" d="M404.487,0L404.487,3.333C404.487,6.667,404.487,13.333,435.667,16.667C466.847,20,529.207,20,560.387,23.333C591.567,26.667,591.567,33.333,591.567,36.667L591.567,40"/><defs><marker id="arrowhead1794" viewBox="0 0 10 10" refX="9" refY="5" markerUnits="strokeWidth" markerWidth="8" markerHeight="6" orient="auto"><path d="M 0 0 L 10 5 L 0 10 z"/></marker></defs></g></g></g><g class="edges"><g class="edge"><path class="path" style="fill: none;" marker-end="url(#arrowhead1795)" d="M404.487,45.625L404.487,46.354C404.487,47.083,404.487,48.542,404.487,51.354C404.487,54.167,404.487,58.333,404.487,60.417L404.487,62.5"/></g><g class="edge"><path class="path" style="fill: none;" marker-end="url(#arrowhead1796)" d="M404.487,880L404.487,882.083C404.487,884.167,404.487,888.333,404.487,891.762C404.487,895.192,404.487,897.883,404.487,899.229L404.487,900.575"/><defs><marker id="arrowhead1796" viewBox="0 0 10 10" refX="9" refY="5" markerUnits="strokeWidth" markerWidth="8" markerHeight="6" orient="auto"><path d="M 0 0 L 10 5 L 0 10 z"/></marker></defs></g></g></g><style xmlns="http://www.w3.org/1999/xhtml">
  .link &gt; rect {
    fill: #0073BB;
  }

  .link .label {
    fill: #FFFFFF;
  }

  .node &gt; .shape {
    stroke: #555555;
    stroke-width: 0.6px;
    fill: #FFFFFF;
  }

  path {
    stroke: #555;
    background-color: #555;
    stroke-width: 1px;
  }

  .node.state.NotYetStarted &gt; .shape,
  .node.state.Container &gt; .shape {
    stroke-dasharray: 5 2;
  }

  .node.state.FailedState &gt; .shape,
  rect.legend.FailedState {
    fill: #DE322F;
  }

  .node.state.CaughtErrorState &gt; .shape,
  rect.legend.CaughtErrorState {
    fill: #FFA500;
  }

  .node.state.SucceededState &gt; .shape,
  rect.legend.SucceededState {
    fill: #2BD62E;
  }

  .node.state.InProgressState &gt; .shape,
  rect.legend.InProgressState {
    fill: #53c9ed;
  }

  .node.state.CancelledState &gt; .shape,
  rect.legend.CancelledState {
    fill: #dddddd;
  }

  .node.anchor &gt; .shape {
    fill: #FFDA75;
  }

  .node.state.hovered:not(.selected):not(.NotYetStarted) &gt; .shape,
  .node.selected &gt; .shape {
    stroke: #555555;
    stroke-width: 2px;
  }

  .node.state.Container.Failed &gt; .shape {
    fill: #EE9592;
  }

  .node.state.Container.CaughtError &gt; .shape {
    fill: #FFD27F;
  }

  .node.state.Container.Succeeded &gt; .shape {
    fill: #91EA9A;
  }

  .node.state.Container.InProgress &gt; .shape {
    fill :#A9E4F7;
  }

  .node.state.Container.Cancelled &gt; .shape {
    fill: #EEEEEE;
  }

  marker {
    fill: #555555;
  }

  .node.anchor,
  .node.state.NotYetStarted {
    cursor: default;
  }

  .node.state {
    cursor: default;
  }

  tspan .label {
    font-weight: normal;
    font-size: 12px;
    text-shadow: none;
  }
</style></svg>